<?xml version="1.0" encoding="UTF-8" standalone="no"?>
<!DOCTYPE svg PUBLIC "-//W3C//DTD SVG 1.1//EN" "http://www.w3.org/Graphics/SVG/1.1/DTD/svg11.dtd">
<svg xmlns="http://www.w3.org/2000/svg" version="1.1" viewBox="0.00 0.00 2410.00 648.00">
<g stroke-width="2.00" fill="none" stroke-linecap="butt">
<path stroke="#011836" vector-effect="non-scaling-stroke" d="
  M 1635.26 0.00
  C 1598.45 1.54 1564.65 17.06 1540.19 44.68
  C 1516.33 71.61 1506.96 104.21 1508.57 139.75
  Q 1510.81 189.35 1544.53 223.35
  C 1563.71 242.70 1588.39 255.45 1615.25 260.57
  C 1629.60 263.31 1645.45 262.46 1660.00 261.88
  Q 1669.11 261.51 1678.01 259.58
  C 1726.34 249.12 1767.19 214.97 1779.86 166.51
  C 1784.20 149.91 1784.95 129.31 1783.00 112.76
  Q 1778.58 75.26 1752.64 45.88
  C 1728.00 17.96 1694.06 1.94 1656.76 0.00"
/>
<path stroke="#011836" vector-effect="non-scaling-stroke" d="
  M 1983.63 648.00
  Q 1987.34 647.19 1989.75 645.00
  Q 2003.13 632.87 2018.99 616.24
  Q 2020.07 615.11 2020.68 614.15
  Q 2021.22 613.30 2020.25 613.55
  C 2010.21 616.11 2002.64 618.30 1991.00 616.84
  Q 1978.32 615.26 1962.51 610.27
  Q 1943.28 604.21 1925.63 597.16
  Q 1923.05 596.13 1925.76 595.52
  Q 1940.49 592.15 1954.78 585.54
  C 1991.01 568.76 2018.08 534.73 2026.37 495.81
  C 2035.52 452.76 2024.17 407.17 1993.01 376.01
  C 1964.64 347.65 1927.09 334.59 1886.90 335.85
  C 1882.80 335.98 1877.88 336.80 1873.33 337.06
  C 1824.25 339.92 1779.26 373.33 1761.83 419.17
  C 1756.04 434.41 1753.48 449.61 1753.26 466.25
  C 1752.51 523.66 1788.04 573.14 1842.01 591.26
  C 1851.19 594.34 1860.27 596.06 1868.68 601.55
  Q 1889.09 614.86 1902.59 622.41
  Q 1922.17 633.37 1949.24 641.37
  Q 1964.70 645.95 1980.75 648.00"
/>
<path stroke="#011836" vector-effect="non-scaling-stroke" d="
  M 0.00 139.68
  C 0.34 144.17 0.56 148.80 1.30 153.08
  C 10.84 208.26 51.32 250.82 106.85 260.44
  Q 115.16 261.88 126.74 262.34
  C 155.35 263.48 181.53 260.68 207.46 251.17
  Q 215.52 248.21 223.47 244.95
  C 230.26 242.17 230.71 238.43 230.65 231.75
  Q 230.52 217.00 230.19 201.95
  A 0.51 0.51 0.0 0 0 229.40 201.53
  C 220.37 207.44 210.29 212.28 200.34 216.52
  C 172.12 228.54 141.90 231.82 111.66 226.24
  Q 107.41 225.46 103.15 223.88
  C 74.18 213.16 51.79 193.40 42.51 163.14
  Q 41.33 159.29 40.26 155.39
  C 37.82 146.53 37.53 136.77 37.83 127.65
  C 39.11 89.23 63.35 56.13 98.99 42.35
  C 137.07 27.62 181.38 36.27 216.79 54.47
  Q 222.07 57.18 227.23 59.96
  A 0.55 0.55 0.0 0 0 228.04 59.47
  L 228.01 21.74
  A 1.44 1.43 10.4 0 0 227.08 20.40
  C 202.51 11.09 177.25 2.33 150.79 0.68
  Q 133.10 -0.42 118.24 1.27
  C 59.04 8.00 10.05 53.12 1.01 112.75
  Q 0.56 115.69 0.00 125.50"
/>
<path stroke="#011836" vector-effect="non-scaling-stroke" d="
  M 773.25 3.44
  L 664.05 259.27
  A 0.54 0.53 -78.4 0 0 664.54 260.02
  L 700.24 259.97
  A 1.57 1.57 0.0 0 0 701.68 259.03
  C 709.01 242.41 715.73 225.53 722.98 208.79
  Q 728.04 197.08 732.85 185.26
  Q 733.38 183.95 734.74 183.83
  C 743.29 183.04 754.73 183.76 760.63 183.76
  Q 792.59 183.79 824.54 183.53
  C 829.27 183.49 835.69 182.93 841.38 183.07
  A 2.23 2.23 0.0 0 1 843.35 184.39
  L 877.00 259.25
  A 1.35 1.35 0.0 0 0 878.23 260.04
  L 914.42 260.02
  A 0.32 0.32 0.0 0 0 914.71 259.57
  L 800.41 3.23
  A 1.85 1.84 77.3 0 0 798.70 2.14
  L 774.56 2.56
  A 1.46 1.46 0.0 0 0 773.25 3.44"
/>
<path stroke="#011836" vector-effect="non-scaling-stroke" d="
  M 384.32 137.54
  C 388.35 135.48 393.00 133.33 396.42 131.17
  C 421.39 115.34 430.85 86.16 424.28 57.75
  C 418.96 34.74 404.96 19.72 383.80 10.87
  Q 368.11 4.31 351.39 3.80
  Q 331.16 3.18 281.00 2.93
  Q 279.52 2.93 278.28 2.79
  A 0.95 0.95 0.0 0 0 277.23 3.74
  L 277.25 259.02
  A 1.02 1.01 0.0 0 0 278.27 260.03
  L 312.78 260.14
  Q 313.71 260.14 313.71 259.22
  L 314.11 149.01
  A 0.71 0.71 0.0 0 1 314.77 148.30
  C 329.26 147.32 345.92 148.41 357.84 157.90
  C 373.47 170.35 385.38 188.37 395.96 205.31
  Q 412.94 232.48 430.89 258.92
  A 2.52 2.52 0.0 0 0 432.97 260.02
  C 446.31 260.04 460.31 260.66 473.66 259.51
  A 0.67 0.66 69.0 0 0 474.13 258.44
  C 465.14 246.46 456.77 234.77 448.43 221.74
  C 429.78 192.60 412.56 159.78 384.23 138.66
  A 0.66 0.66 0.0 0 1 384.32 137.54"
/>
<path stroke="#011836" vector-effect="non-scaling-stroke" d="
  M 1401.06 246.08
  C 1413.11 240.65 1423.89 232.48 1433.50 223.49
  Q 1461.24 197.56 1470.03 160.49
  C 1482.75 106.83 1458.79 47.96 1410.51 20.74
  C 1397.70 13.52 1382.04 9.48 1367.12 6.44
  Q 1357.04 4.39 1349.00 4.22
  Q 1293.51 3.02 1238.36 2.98
  Q 1237.84 2.98 1237.84 3.50
  L 1237.84 259.49
  A 0.75 0.75 0.0 0 0 1238.60 260.24
  Q 1292.67 259.81 1346.89 259.11
  Q 1359.09 258.95 1369.00 256.83
  Q 1384.65 253.48 1401.06 246.08"
/>
<path stroke="#011836" vector-effect="non-scaling-stroke" d="
  M 541.36 114.22
  A 0.74 0.74 0.0 0 1 540.62 113.49
  L 540.57 36.48
  A 0.70 0.70 0.0 0 1 541.27 35.78
  L 648.58 35.85
  A 0.43 0.43 0.0 0 0 649.01 35.42
  L 649.00 3.76
  A 0.74 0.74 0.0 0 0 648.26 3.02
  L 504.23 3.03
  Q 503.22 3.03 503.22 4.03
  C 503.13 89.55 503.20 174.31 503.81 258.52
  A 1.14 1.14 0.0 0 0 504.95 259.65
  L 651.45 259.60
  A 0.81 0.81 0.0 0 0 652.26 258.80
  L 652.76 228.01
  A 0.75 0.75 0.0 0 0 652.01 227.25
  L 541.32 227.17
  Q 540.60 227.17 540.60 226.45
  L 540.60 148.04
  Q 540.60 147.05 541.59 147.05
  L 643.94 147.01
  A 1.46 1.46 0.0 0 0 645.40 145.55
  L 645.45 115.14
  A 0.81 0.81 0.0 0 0 644.64 114.33
  L 541.36 114.22"
/>
<path stroke="#011836" vector-effect="non-scaling-stroke" d="
  M 979.48 64.11
  A 0.46 0.46 0.0 0 1 980.27 63.93
  L 1149.87 259.32
  A 2.11 2.09 69.2 0 0 1151.45 260.04
  L 1181.49 260.04
  A 0.64 0.64 0.0 0 0 1182.13 259.40
  Q 1182.30 149.64 1182.25 39.75
  Q 1182.24 21.65 1181.71 3.45
  Q 1181.70 3.03 1181.28 3.03
  L 1148.22 3.04
  A 0.74 0.74 0.0 0 0 1147.48 3.78
  L 1147.13 200.24
  A 0.49 0.49 0.0 0 1 1146.72 200.72
  C 1146.40 200.76 1146.02 200.64 1145.80 200.40
  Q 1143.15 197.58 1140.59 194.66
  C 1086.10 132.51 1032.02 70.00 977.80 7.60
  C 975.09 4.48 974.20 3.12 970.26 3.07
  Q 958.00 2.91 945.84 3.16
  A 0.84 0.84 0.0 0 0 945.01 4.06
  C 945.52 11.16 944.30 18.04 944.29 25.10
  Q 944.25 125.68 944.11 226.25
  Q 944.09 242.91 944.77 258.74
  Q 944.82 259.97 946.06 259.98
  L 978.23 260.11
  A 0.69 0.69 0.0 0 0 978.92 259.42
  Q 979.02 162.05 979.44 64.50
  Q 979.44 64.26 979.48 64.11"
/>
<path stroke="#011836" vector-effect="non-scaling-stroke" d="
  M 1971.13 62.24
  Q 1971.48 61.99 1971.82 62.42
  Q 2005.36 104.00 2039.00 145.51
  C 2041.79 148.95 2051.20 162.31 2056.52 159.25
  Q 2057.83 158.50 2060.01 155.74
  Q 2097.33 108.57 2134.61 61.38
  Q 2134.91 60.99 2135.28 60.88
  A 0.37 0.36 81.3 0 1 2135.75 61.23
  L 2136.39 258.89
  A 1.13 1.12 89.7 0 0 2137.51 260.01
  L 2172.22 260.03
  A 0.50 0.50 0.0 0 0 2172.72 259.53
  L 2172.72 3.73
  A 0.70 0.70 0.0 0 0 2172.02 3.03
  Q 2156.54 3.02 2140.88 3.05
  C 2138.59 3.05 2137.92 3.69 2136.61 5.35
  Q 2106.29 43.73 2060.71 99.21
  Q 2057.38 103.27 2054.37 106.51
  Q 2053.11 107.86 2051.94 106.43
  L 1969.40 4.72
  A 4.46 4.43 -19.3 0 0 1965.94 3.07
  L 1933.79 3.01
  A 0.70 0.69 90.0 0 0 1933.10 3.71
  L 1933.09 259.06
  A 0.97 0.96 0.0 0 0 1934.06 260.02
  L 1969.77 260.07
  A 0.60 0.60 0.0 0 0 1970.37 259.48
  L 1970.87 62.74
  A 0.61 0.60 72.9 0 1 1971.13 62.24"
/>
<path stroke="#011836" vector-effect="non-scaling-stroke" d="
  M 2265.67 3.73
  A 0.68 0.68 0.0 0 0 2264.99 3.05
  L 2229.05 3.05
  A 0.68 0.68 0.0 0 0 2228.37 3.73
  L 2228.37 259.39
  A 0.68 0.68 0.0 0 0 2229.05 260.07
  L 2264.99 260.07
  A 0.68 0.68 0.0 0 0 2265.67 259.39
  L 2265.67 3.73"
/>
<path stroke="#011836" vector-effect="non-scaling-stroke" d="
  M 2409.56 267.52
  A 1.30 1.30 0.0 0 0 2408.51 265.44
  L 2374.38 265.79
  A 1.30 1.30 0.0 0 0 2373.21 266.56
  L 2350.27 318.11
  A 1.30 1.30 0.0 0 0 2351.43 319.93
  L 2369.24 320.25
  A 1.30 1.30 0.0 0 0 2370.30 319.73
  L 2409.56 267.52"
/>
<path stroke="#011836" vector-effect="non-scaling-stroke" d="
  M 1159.13 398.75
  C 1143.42 424.05 1138.40 454.38 1141.26 483.75
  Q 1144.40 516.08 1163.01 542.55
  C 1189.26 579.88 1230.44 599.80 1276.00 598.86
  Q 1294.08 598.48 1303.26 596.98
  Q 1355.98 588.37 1389.30 548.03
  Q 1410.42 522.46 1414.57 489.13
  C 1415.67 480.26 1416.65 469.36 1416.01 460.50
  Q 1414.91 445.34 1413.99 440.75
  C 1403.39 387.82 1361.14 348.87 1308.87 338.56
  C 1303.01 337.41 1296.49 337.15 1290.24 336.57
  C 1237.45 331.71 1187.44 353.18 1159.13 398.75"
/>
<path stroke="#011836" vector-effect="non-scaling-stroke" d="
  M 1569.79 521.01
  A 1.32 1.32 0.0 0 1 1570.99 520.21
  L 1679.12 519.46
  Q 1679.65 519.46 1679.87 519.94
  Q 1695.36 554.61 1711.21 589.33
  Q 1712.58 592.33 1714.00 594.69
  Q 1714.81 596.03 1716.38 596.03
  L 1750.69 595.92
  A 0.54 0.54 0.0 0 0 1751.18 595.16
  Q 1698.41 476.79 1645.85 358.71
  Q 1641.82 349.65 1637.56 340.69
  C 1636.78 339.05 1636.49 338.26 1634.43 338.07
  Q 1622.97 337.04 1611.65 337.90
  A 1.58 1.57 9.0 0 0 1610.33 338.85
  L 1500.67 595.61
  A 0.57 0.57 0.0 0 0 1501.19 596.40
  L 1536.69 596.30
  A 2.01 2.01 0.0 0 0 1538.54 595.07
  L 1569.79 521.01"
/>
<path stroke="#011836" vector-effect="non-scaling-stroke" d="
  M 47.55 444.01
  A 0.76 0.76 0.0 0 1 46.79 443.25
  L 46.48 372.91
  A 0.76 0.76 0.0 0 1 47.24 372.15
  L 146.17 372.13
  A 0.76 0.76 0.0 0 0 146.93 371.37
  L 146.98 340.09
  A 0.76 0.76 0.0 0 0 146.22 339.33
  L 11.00 339.22
  A 0.76 0.76 0.0 0 0 10.24 339.98
  L 10.24 595.60
  A 0.76 0.76 0.0 0 0 11.00 596.36
  L 45.92 596.26
  A 0.76 0.76 0.0 0 0 46.68 595.50
  L 46.69 477.73
  A 0.76 0.76 0.0 0 1 47.45 476.97
  L 146.21 476.95
  A 0.76 0.76 0.0 0 0 146.97 476.19
  L 146.97 444.88
  A 0.76 0.76 0.0 0 0 146.21 444.12
  L 47.55 444.01"
/>
<path stroke="#011836" vector-effect="non-scaling-stroke" d="
  M 401.71 477.37
  Q 402.25 409.08 401.97 340.25
  Q 401.97 339.28 401.01 339.28
  L 366.04 339.24
  Q 364.84 339.24 364.84 340.44
  C 364.64 396.94 365.06 453.46 363.43 509.75
  Q 363.12 520.31 361.98 523.74
  C 354.96 544.93 336.29 559.02 315.25 564.08
  C 303.63 566.87 290.13 566.96 277.76 565.83
  C 262.52 564.44 248.67 558.32 237.72 548.80
  C 226.62 539.14 220.72 526.35 219.47 511.50
  Q 218.12 495.48 218.11 472.75
  Q 218.08 406.38 218.01 340.04
  A 0.76 0.76 0.0 0 0 217.25 339.28
  L 181.52 339.24
  A 0.77 0.77 0.0 0 0 180.75 340.01
  Q 180.62 400.36 180.68 460.75
  Q 180.72 495.36 182.37 513.06
  C 185.83 550.28 206.48 576.76 240.42 590.22
  C 263.03 599.18 285.27 599.97 309.56 597.74
  Q 321.03 596.69 329.26 594.54
  C 362.30 585.89 389.63 562.70 397.44 528.72
  C 401.60 510.65 401.53 499.30 401.71 477.37"
/>
<path stroke="#011836" vector-effect="non-scaling-stroke" d="
  M 518.19 372.14
  A 0.67 0.67 0.0 0 1 518.86 372.81
  L 518.90 595.73
  A 0.67 0.67 0.0 0 0 519.57 596.40
  L 555.37 596.26
  A 0.67 0.67 0.0 0 0 556.04 595.59
  L 556.04 372.83
  A 0.67 0.67 0.0 0 1 556.71 372.16
  L 644.75 372.15
  A 0.67 0.67 0.0 0 0 645.42 371.48
  L 645.40 339.93
  A 0.67 0.67 0.0 0 0 644.73 339.26
  L 431.81 339.24
  A 0.67 0.67 0.0 0 0 431.14 339.91
  L 431.27 371.46
  A 0.67 0.67 0.0 0 0 431.94 372.13
  L 518.19 372.14"
/>
<path stroke="#011836" vector-effect="non-scaling-stroke" d="
  M 676.53 515.50
  C 679.25 545.39 696.27 570.91 722.98 584.73
  C 749.96 598.69 777.30 600.51 806.26 597.73
  C 817.81 596.62 829.00 593.01 839.66 588.58
  C 866.21 577.56 885.17 556.41 891.74 528.24
  C 895.62 511.62 895.37 499.82 895.55 480.25
  Q 896.18 412.88 895.74 345.50
  Q 895.72 342.67 895.81 340.00
  Q 895.83 339.41 895.25 339.41
  L 859.55 339.19
  A 0.76 0.76 0.0 0 0 858.78 339.95
  Q 858.69 425.11 857.96 509.25
  C 857.81 526.47 848.90 542.23 835.19 552.15
  C 815.05 566.71 789.18 568.93 765.01 564.79
  Q 739.78 560.48 723.30 539.89
  C 721.50 537.63 718.99 533.78 718.22 531.52
  Q 712.49 514.66 712.28 498.50
  Q 711.86 465.10 712.01 397.17
  C 712.02 394.70 711.62 391.75 711.69 389.50
  Q 712.42 364.57 711.22 340.28
  Q 711.17 339.31 710.20 339.31
  L 675.28 339.24
  A 0.52 0.51 -89.4 0 0 674.77 339.75
  Q 674.55 406.48 674.90 473.25
  Q 675.04 499.16 676.53 515.50"
/>
<path stroke="#011836" vector-effect="non-scaling-stroke" d="
  M 984.68 484.30
  Q 994.67 483.92 1004.76 484.83
  C 1014.69 485.72 1020.48 488.01 1028.27 494.22
  C 1052.80 513.78 1066.00 541.57 1083.53 568.05
  Q 1092.72 581.94 1101.97 595.53
  A 2.00 1.99 -17.3 0 0 1103.64 596.40
  Q 1123.00 596.37 1141.75 596.18
  Q 1143.53 596.16 1144.87 595.86
  Q 1145.49 595.71 1145.11 595.20
  Q 1127.33 571.04 1111.45 545.60
  Q 1100.40 527.89 1088.54 510.72
  C 1078.29 495.87 1068.79 485.29 1055.62 475.27
  A 1.10 1.10 0.0 0 1 1055.70 473.46
  Q 1055.93 473.31 1056.35 473.11
  C 1075.02 464.36 1089.83 450.20 1094.51 429.56
  C 1095.52 425.10 1096.61 420.51 1096.88 416.18
  C 1097.99 398.34 1093.23 378.02 1080.40 364.84
  C 1065.22 349.23 1046.16 341.50 1024.50 340.20
  C 999.31 338.70 973.84 339.16 948.64 339.25
  A 0.71 0.71 0.0 0 0 947.94 339.96
  L 947.89 595.69
  A 0.67 0.67 0.0 0 0 948.56 596.36
  L 983.69 596.25
  A 0.70 0.69 0.0 0 0 984.39 595.56
  L 984.36 484.64
  A 0.34 0.33 89.1 0 1 984.68 484.30"
/>
<path stroke="#011836" vector-effect="non-scaling-stroke" d="
  M 2251.63 514.63
  C 2249.04 540.49 2228.74 557.40 2205.08 563.58
  Q 2196.19 565.90 2185.32 566.57
  C 2160.06 568.14 2135.48 560.91 2118.80 540.95
  C 2110.32 530.80 2107.80 516.61 2107.23 503.75
  Q 2106.54 488.07 2106.46 464.50
  Q 2106.25 402.16 2106.13 339.91
  A 0.64 0.63 -90.0 0 0 2105.50 339.27
  L 2070.24 339.25
  A 0.46 0.45 90.0 0 0 2069.79 339.71
  C 2069.78 394.68 2069.60 449.73 2070.46 504.75
  C 2070.69 519.39 2073.47 534.37 2080.11 547.31
  C 2103.26 592.43 2154.65 602.69 2200.49 597.70
  C 2229.57 594.54 2261.08 579.14 2276.31 553.06
  Q 2284.49 539.05 2287.60 522.65
  Q 2288.93 515.67 2289.50 502.78
  Q 2290.16 487.62 2290.18 474.75
  Q 2290.27 407.40 2290.23 340.23
  A 0.97 0.97 0.0 0 0 2289.26 339.26
  L 2254.50 339.26
  A 0.62 0.61 0.0 0 0 2253.88 339.87
  Q 2253.74 395.12 2253.76 450.25
  C 2253.77 472.45 2253.44 496.66 2251.63 514.63"
/>
<path stroke="#011836" vector-effect="non-scaling-stroke" d="
  M 2378.72 340.14
  A 0.89 0.89 0.0 0 0 2377.83 339.25
  L 2342.15 339.25
  A 0.89 0.89 0.0 0 0 2341.26 340.14
  L 2341.26 595.40
  A 0.89 0.89 0.0 0 0 2342.15 596.29
  L 2377.83 596.29
  A 0.89 0.89 0.0 0 0 2378.72 595.40
  L 2378.72 340.14"
/>
<path stroke="#011836" vector-effect="non-scaling-stroke" d="
  M 1660.76 227.97
  C 1692.86 225.37 1721.26 203.50 1736.34 175.79
  Q 1740.46 168.22 1743.86 155.60
  Q 1745.33 150.16 1745.55 144.23
  C 1746.11 129.04 1746.54 112.98 1741.21 98.78
  C 1729.19 66.78 1700.83 41.75 1666.69 36.10
  C 1640.77 31.82 1611.01 35.82 1588.61 50.86
  C 1567.17 65.26 1552.68 86.67 1548.08 111.98
  C 1543.39 137.81 1547.25 166.17 1562.93 187.83
  C 1580.53 212.14 1609.87 228.90 1640.50 228.65
  Q 1653.65 228.55 1660.76 227.97"
/>
<path stroke="#011836" vector-effect="non-scaling-stroke" d="
  M 786.14 60.54
  C 773.30 89.84 760.56 119.50 748.99 149.42
  A 1.18 1.18 0.0 0 0 750.03 151.03
  Q 754.99 151.32 760.25 151.39
  Q 792.25 151.85 824.25 151.23
  Q 825.76 151.20 827.03 150.96
  A 0.61 0.61 0.0 0 0 827.47 150.11
  L 787.55 60.54
  A 0.77 0.77 0.0 0 0 786.14 60.54"
/>
<path stroke="#011836" vector-effect="non-scaling-stroke" d="
  M 362.82 112.08
  Q 383.41 104.24 387.54 82.76
  Q 391.26 63.46 378.90 48.81
  C 364.63 31.90 334.50 35.25 314.52 34.47
  A 0.39 0.38 1.4 0 0 314.11 34.85
  L 313.68 114.47
  A 0.73 0.73 0.0 0 0 314.41 115.21
  Q 335.38 115.29 356.49 113.65
  Q 359.25 113.44 362.82 112.08"
/>
<path stroke="#011836" vector-effect="non-scaling-stroke" d="
  M 1366.05 222.44
  C 1403.63 214.02 1430.34 181.65 1434.56 143.76
  C 1436.18 129.20 1435.52 114.03 1431.09 100.12
  C 1419.90 64.97 1388.92 40.76 1351.75 37.34
  Q 1342.17 36.45 1337.50 36.31
  Q 1305.98 35.35 1274.54 35.98
  A 0.32 0.32 0.0 0 0 1274.22 36.30
  L 1274.19 226.45
  Q 1274.19 226.96 1274.70 226.97
  Q 1299.84 227.19 1325.00 227.07
  Q 1345.79 226.97 1366.05 222.44"
/>
<path stroke="#011836" vector-effect="non-scaling-stroke" d="
  M 1186.17 428.43
  C 1179.20 444.41 1178.53 457.91 1179.09 476.71
  C 1180.39 520.83 1216.50 556.65 1258.64 563.77
  C 1267.96 565.34 1279.91 565.66 1289.26 564.71
  Q 1334.78 560.10 1361.32 523.36
  C 1370.76 510.28 1377.02 493.95 1378.25 477.60
  C 1380.58 446.44 1371.58 419.45 1349.03 397.97
  Q 1323.17 373.32 1287.26 370.83
  C 1244.15 367.84 1203.93 387.72 1186.17 428.43"
/>
<path stroke="#011836" vector-effect="non-scaling-stroke" d="
  M 1929.58 558.38
  C 1955.39 547.90 1976.37 527.46 1986.04 501.29
  C 1991.17 487.43 1991.83 471.84 1990.82 457.01
  C 1988.82 427.60 1972.27 402.09 1948.04 386.21
  C 1923.46 370.11 1890.03 367.10 1862.23 374.23
  C 1818.49 385.45 1789.77 426.35 1791.29 471.25
  Q 1792.80 516.02 1825.78 542.96
  C 1842.12 556.30 1862.41 563.69 1883.50 564.98
  C 1898.88 565.93 1915.21 564.21 1929.58 558.38"
/>
<path stroke="#011836" vector-effect="non-scaling-stroke" d="
  M 1622.62 396.62
  C 1609.97 425.88 1598.08 455.37 1585.69 484.69
  Q 1585.23 485.77 1585.79 486.53
  A 0.35 0.33 -16.8 0 0 1586.07 486.67
  L 1662.74 487.13
  A 0.71 0.70 -11.2 0 0 1663.40 486.15
  C 1650.69 455.97 1637.71 426.13 1623.82 396.60
  A 0.66 0.66 0.0 0 0 1622.62 396.62"
/>
<path stroke="#011836" vector-effect="non-scaling-stroke" d="
  M 1035.56 447.33
  C 1047.94 442.12 1056.77 431.03 1058.55 418.00
  C 1061.70 395.07 1049.19 376.50 1026.26 372.74
  C 1012.95 370.55 998.95 370.79 985.53 370.81
  A 0.66 0.66 0.0 0 0 984.87 371.47
  L 984.39 450.76
  A 0.80 0.80 0.0 0 0 985.21 451.57
  C 999.49 451.30 1014.06 451.42 1028.23 449.56
  Q 1031.17 449.18 1035.56 447.33"
/>
</g>
<path fill="#000000" d="
  M 0.00 0.00
  L 1635.26 0.00
  C 1598.45 1.54 1564.65 17.06 1540.19 44.68
  C 1516.33 71.61 1506.96 104.21 1508.57 139.75
  Q 1510.81 189.35 1544.53 223.35
  C 1563.71 242.70 1588.39 255.45 1615.25 260.57
  C 1629.60 263.31 1645.45 262.46 1660.00 261.88
  Q 1669.11 261.51 1678.01 259.58
  C 1726.34 249.12 1767.19 214.97 1779.86 166.51
  C 1784.20 149.91 1784.95 129.31 1783.00 112.76
  Q 1778.58 75.26 1752.64 45.88
  C 1728.00 17.96 1694.06 1.94 1656.76 0.00
  L 2410.00 0.00
  L 2410.00 648.00
  L 1983.63 648.00
  Q 1987.34 647.19 1989.75 645.00
  Q 2003.13 632.87 2018.99 616.24
  Q 2020.07 615.11 2020.68 614.15
  Q 2021.22 613.30 2020.25 613.55
  C 2010.21 616.11 2002.64 618.30 1991.00 616.84
  Q 1978.32 615.26 1962.51 610.27
  Q 1943.28 604.21 1925.63 597.16
  Q 1923.05 596.13 1925.76 595.52
  Q 1940.49 592.15 1954.78 585.54
  C 1991.01 568.76 2018.08 534.73 2026.37 495.81
  C 2035.52 452.76 2024.17 407.17 1993.01 376.01
  C 1964.64 347.65 1927.09 334.59 1886.90 335.85
  C 1882.80 335.98 1877.88 336.80 1873.33 337.06
  C 1824.25 339.92 1779.26 373.33 1761.83 419.17
  C 1756.04 434.41 1753.48 449.61 1753.26 466.25
  C 1752.51 523.66 1788.04 573.14 1842.01 591.26
  C 1851.19 594.34 1860.27 596.06 1868.68 601.55
  Q 1889.09 614.86 1902.59 622.41
  Q 1922.17 633.37 1949.24 641.37
  Q 1964.70 645.95 1980.75 648.00
  L 0.00 648.00
  L 0.00 139.68
  C 0.34 144.17 0.56 148.80 1.30 153.08
  C 10.84 208.26 51.32 250.82 106.85 260.44
  Q 115.16 261.88 126.74 262.34
  C 155.35 263.48 181.53 260.68 207.46 251.17
  Q 215.52 248.21 223.47 244.95
  C 230.26 242.17 230.71 238.43 230.65 231.75
  Q 230.52 217.00 230.19 201.95
  A 0.51 0.51 0.0 0 0 229.40 201.53
  C 220.37 207.44 210.29 212.28 200.34 216.52
  C 172.12 228.54 141.90 231.82 111.66 226.24
  Q 107.41 225.46 103.15 223.88
  C 74.18 213.16 51.79 193.40 42.51 163.14
  Q 41.33 159.29 40.26 155.39
  C 37.82 146.53 37.53 136.77 37.83 127.65
  C 39.11 89.23 63.35 56.13 98.99 42.35
  C 137.07 27.62 181.38 36.27 216.79 54.47
  Q 222.07 57.18 227.23 59.96
  A 0.55 0.55 0.0 0 0 228.04 59.47
  L 228.01 21.74
  A 1.44 1.43 10.4 0 0 227.08 20.40
  C 202.51 11.09 177.25 2.33 150.79 0.68
  Q 133.10 -0.42 118.24 1.27
  C 59.04 8.00 10.05 53.12 1.01 112.75
  Q 0.56 115.69 0.00 125.50
  L 0.00 0.00
  Z
  M 773.25 3.44
  L 664.05 259.27
  A 0.54 0.53 -78.4 0 0 664.54 260.02
  L 700.24 259.97
  A 1.57 1.57 0.0 0 0 701.68 259.03
  C 709.01 242.41 715.73 225.53 722.98 208.79
  Q 728.04 197.08 732.85 185.26
  Q 733.38 183.95 734.74 183.83
  C 743.29 183.04 754.73 183.76 760.63 183.76
  Q 792.59 183.79 824.54 183.53
  C 829.27 183.49 835.69 182.93 841.38 183.07
  A 2.23 2.23 0.0 0 1 843.35 184.39
  L 877.00 259.25
  A 1.35 1.35 0.0 0 0 878.23 260.04
  L 914.42 260.02
  A 0.32 0.32 0.0 0 0 914.71 259.57
  L 800.41 3.23
  A 1.85 1.84 77.3 0 0 798.70 2.14
  L 774.56 2.56
  A 1.46 1.46 0.0 0 0 773.25 3.44
  Z
  M 384.32 137.54
  C 388.35 135.48 393.00 133.33 396.42 131.17
  C 421.39 115.34 430.85 86.16 424.28 57.75
  C 418.96 34.74 404.96 19.72 383.80 10.87
  Q 368.11 4.31 351.39 3.80
  Q 331.16 3.18 281.00 2.93
  Q 279.52 2.93 278.28 2.79
  A 0.95 0.95 0.0 0 0 277.23 3.74
  L 277.25 259.02
  A 1.02 1.01 0.0 0 0 278.27 260.03
  L 312.78 260.14
  Q 313.71 260.14 313.71 259.22
  L 314.11 149.01
  A 0.71 0.71 0.0 0 1 314.77 148.30
  C 329.26 147.32 345.92 148.41 357.84 157.90
  C 373.47 170.35 385.38 188.37 395.96 205.31
  Q 412.94 232.48 430.89 258.92
  A 2.52 2.52 0.0 0 0 432.97 260.02
  C 446.31 260.04 460.31 260.66 473.66 259.51
  A 0.67 0.66 69.0 0 0 474.13 258.44
  C 465.14 246.46 456.77 234.77 448.43 221.74
  C 429.78 192.60 412.56 159.78 384.23 138.66
  A 0.66 0.66 0.0 0 1 384.32 137.54
  Z
  M 1401.06 246.08
  C 1413.11 240.65 1423.89 232.48 1433.50 223.49
  Q 1461.24 197.56 1470.03 160.49
  C 1482.75 106.83 1458.79 47.96 1410.51 20.74
  C 1397.70 13.52 1382.04 9.48 1367.12 6.44
  Q 1357.04 4.39 1349.00 4.22
  Q 1293.51 3.02 1238.36 2.98
  Q 1237.84 2.98 1237.84 3.50
  L 1237.84 259.49
  A 0.75 0.75 0.0 0 0 1238.60 260.24
  Q 1292.67 259.81 1346.89 259.11
  Q 1359.09 258.95 1369.00 256.83
  Q 1384.65 253.48 1401.06 246.08
  Z
  M 541.36 114.22
  A 0.74 0.74 0.0 0 1 540.62 113.49
  L 540.57 36.48
  A 0.70 0.70 0.0 0 1 541.27 35.78
  L 648.58 35.85
  A 0.43 0.43 0.0 0 0 649.01 35.42
  L 649.00 3.76
  A 0.74 0.74 0.0 0 0 648.26 3.02
  L 504.23 3.03
  Q 503.22 3.03 503.22 4.03
  C 503.13 89.55 503.20 174.31 503.81 258.52
  A 1.14 1.14 0.0 0 0 504.95 259.65
  L 651.45 259.60
  A 0.81 0.81 0.0 0 0 652.26 258.80
  L 652.76 228.01
  A 0.75 0.75 0.0 0 0 652.01 227.25
  L 541.32 227.17
  Q 540.60 227.17 540.60 226.45
  L 540.60 148.04
  Q 540.60 147.05 541.59 147.05
  L 643.94 147.01
  A 1.46 1.46 0.0 0 0 645.40 145.55
  L 645.45 115.14
  A 0.81 0.81 0.0 0 0 644.64 114.33
  L 541.36 114.22
  Z
  M 979.48 64.11
  A 0.46 0.46 0.0 0 1 980.27 63.93
  L 1149.87 259.32
  A 2.11 2.09 69.2 0 0 1151.45 260.04
  L 1181.49 260.04
  A 0.64 0.64 0.0 0 0 1182.13 259.40
  Q 1182.30 149.64 1182.25 39.75
  Q 1182.24 21.65 1181.71 3.45
  Q 1181.70 3.03 1181.28 3.03
  L 1148.22 3.04
  A 0.74 0.74 0.0 0 0 1147.48 3.78
  L 1147.13 200.24
  A 0.49 0.49 0.0 0 1 1146.72 200.72
  C 1146.40 200.76 1146.02 200.64 1145.80 200.40
  Q 1143.15 197.58 1140.59 194.66
  C 1086.10 132.51 1032.02 70.00 977.80 7.60
  C 975.09 4.48 974.20 3.12 970.26 3.07
  Q 958.00 2.91 945.84 3.16
  A 0.84 0.84 0.0 0 0 945.01 4.06
  C 945.52 11.16 944.30 18.04 944.29 25.10
  Q 944.25 125.68 944.11 226.25
  Q 944.09 242.91 944.77 258.74
  Q 944.82 259.97 946.06 259.98
  L 978.23 260.11
  A 0.69 0.69 0.0 0 0 978.92 259.42
  Q 979.02 162.05 979.44 64.50
  Q 979.44 64.26 979.48 64.11
  Z
  M 1971.13 62.24
  Q 1971.48 61.99 1971.82 62.42
  Q 2005.36 104.00 2039.00 145.51
  C 2041.79 148.95 2051.20 162.31 2056.52 159.25
  Q 2057.83 158.50 2060.01 155.74
  Q 2097.33 108.57 2134.61 61.38
  Q 2134.91 60.99 2135.28 60.88
  A 0.37 0.36 81.3 0 1 2135.75 61.23
  L 2136.39 258.89
  A 1.13 1.12 89.7 0 0 2137.51 260.01
  L 2172.22 260.03
  A 0.50 0.50 0.0 0 0 2172.72 259.53
  L 2172.72 3.73
  A 0.70 0.70 0.0 0 0 2172.02 3.03
  Q 2156.54 3.02 2140.88 3.05
  C 2138.59 3.05 2137.92 3.69 2136.61 5.35
  Q 2106.29 43.73 2060.71 99.21
  Q 2057.38 103.27 2054.37 106.51
  Q 2053.11 107.86 2051.94 106.43
  L 1969.40 4.72
  A 4.46 4.43 -19.3 0 0 1965.94 3.07
  L 1933.79 3.01
  A 0.70 0.69 90.0 0 0 1933.10 3.71
  L 1933.09 259.06
  A 0.97 0.96 0.0 0 0 1934.06 260.02
  L 1969.77 260.07
  A 0.60 0.60 0.0 0 0 1970.37 259.48
  L 1970.87 62.74
  A 0.61 0.60 72.9 0 1 1971.13 62.24
  Z
  M 2265.67 3.73
  A 0.68 0.68 0.0 0 0 2264.99 3.05
  L 2229.05 3.05
  A 0.68 0.68 0.0 0 0 2228.37 3.73
  L 2228.37 259.39
  A 0.68 0.68 0.0 0 0 2229.05 260.07
  L 2264.99 260.07
  A 0.68 0.68 0.0 0 0 2265.67 259.39
  L 2265.67 3.73
  Z
  M 2409.56 267.52
  A 1.30 1.30 0.0 0 0 2408.51 265.44
  L 2374.38 265.79
  A 1.30 1.30 0.0 0 0 2373.21 266.56
  L 2350.27 318.11
  A 1.30 1.30 0.0 0 0 2351.43 319.93
  L 2369.24 320.25
  A 1.30 1.30 0.0 0 0 2370.30 319.73
  L 2409.56 267.52
  Z
  M 1159.13 398.75
  C 1143.42 424.05 1138.40 454.38 1141.26 483.75
  Q 1144.40 516.08 1163.01 542.55
  C 1189.26 579.88 1230.44 599.80 1276.00 598.86
  Q 1294.08 598.48 1303.26 596.98
  Q 1355.98 588.37 1389.30 548.03
  Q 1410.42 522.46 1414.57 489.13
  C 1415.67 480.26 1416.65 469.36 1416.01 460.50
  Q 1414.91 445.34 1413.99 440.75
  C 1403.39 387.82 1361.14 348.87 1308.87 338.56
  C 1303.01 337.41 1296.49 337.15 1290.24 336.57
  C 1237.45 331.71 1187.44 353.18 1159.13 398.75
  Z
  M 1569.79 521.01
  A 1.32 1.32 0.0 0 1 1570.99 520.21
  L 1679.12 519.46
  Q 1679.65 519.46 1679.87 519.94
  Q 1695.36 554.61 1711.21 589.33
  Q 1712.58 592.33 1714.00 594.69
  Q 1714.81 596.03 1716.38 596.03
  L 1750.69 595.92
  A 0.54 0.54 0.0 0 0 1751.18 595.16
  Q 1698.41 476.79 1645.85 358.71
  Q 1641.82 349.65 1637.56 340.69
  C 1636.78 339.05 1636.49 338.26 1634.43 338.07
  Q 1622.97 337.04 1611.65 337.90
  A 1.58 1.57 9.0 0 0 1610.33 338.85
  L 1500.67 595.61
  A 0.57 0.57 0.0 0 0 1501.19 596.40
  L 1536.69 596.30
  A 2.01 2.01 0.0 0 0 1538.54 595.07
  L 1569.79 521.01
  Z
  M 47.55 444.01
  A 0.76 0.76 0.0 0 1 46.79 443.25
  L 46.48 372.91
  A 0.76 0.76 0.0 0 1 47.24 372.15
  L 146.17 372.13
  A 0.76 0.76 0.0 0 0 146.93 371.37
  L 146.98 340.09
  A 0.76 0.76 0.0 0 0 146.22 339.33
  L 11.00 339.22
  A 0.76 0.76 0.0 0 0 10.24 339.98
  L 10.24 595.60
  A 0.76 0.76 0.0 0 0 11.00 596.36
  L 45.92 596.26
  A 0.76 0.76 0.0 0 0 46.68 595.50
  L 46.69 477.73
  A 0.76 0.76 0.0 0 1 47.45 476.97
  L 146.21 476.95
  A 0.76 0.76 0.0 0 0 146.97 476.19
  L 146.97 444.88
  A 0.76 0.76 0.0 0 0 146.21 444.12
  L 47.55 444.01
  Z
  M 401.71 477.37
  Q 402.25 409.08 401.97 340.25
  Q 401.97 339.28 401.01 339.28
  L 366.04 339.24
  Q 364.84 339.24 364.84 340.44
  C 364.64 396.94 365.06 453.46 363.43 509.75
  Q 363.12 520.31 361.98 523.74
  C 354.96 544.93 336.29 559.02 315.25 564.08
  C 303.63 566.87 290.13 566.96 277.76 565.83
  C 262.52 564.44 248.67 558.32 237.72 548.80
  C 226.62 539.14 220.72 526.35 219.47 511.50
  Q 218.12 495.48 218.11 472.75
  Q 218.08 406.38 218.01 340.04
  A 0.76 0.76 0.0 0 0 217.25 339.28
  L 181.52 339.24
  A 0.77 0.77 0.0 0 0 180.75 340.01
  Q 180.62 400.36 180.68 460.75
  Q 180.72 495.36 182.37 513.06
  C 185.83 550.28 206.48 576.76 240.42 590.22
  C 263.03 599.18 285.27 599.97 309.56 597.74
  Q 321.03 596.69 329.26 594.54
  C 362.30 585.89 389.63 562.70 397.44 528.72
  C 401.60 510.65 401.53 499.30 401.71 477.37
  Z
  M 518.19 372.14
  A 0.67 0.67 0.0 0 1 518.86 372.81
  L 518.90 595.73
  A 0.67 0.67 0.0 0 0 519.57 596.40
  L 555.37 596.26
  A 0.67 0.67 0.0 0 0 556.04 595.59
  L 556.04 372.83
  A 0.67 0.67 0.0 0 1 556.71 372.16
  L 644.75 372.15
  A 0.67 0.67 0.0 0 0 645.42 371.48
  L 645.40 339.93
  A 0.67 0.67 0.0 0 0 644.73 339.26
  L 431.81 339.24
  A 0.67 0.67 0.0 0 0 431.14 339.91
  L 431.27 371.46
  A 0.67 0.67 0.0 0 0 431.94 372.13
  L 518.19 372.14
  Z
  M 676.53 515.50
  C 679.25 545.39 696.27 570.91 722.98 584.73
  C 749.96 598.69 777.30 600.51 806.26 597.73
  C 817.81 596.62 829.00 593.01 839.66 588.58
  C 866.21 577.56 885.17 556.41 891.74 528.24
  C 895.62 511.62 895.37 499.82 895.55 480.25
  Q 896.18 412.88 895.74 345.50
  Q 895.72 342.67 895.81 340.00
  Q 895.83 339.41 895.25 339.41
  L 859.55 339.19
  A 0.76 0.76 0.0 0 0 858.78 339.95
  Q 858.69 425.11 857.96 509.25
  C 857.81 526.47 848.90 542.23 835.19 552.15
  C 815.05 566.71 789.18 568.93 765.01 564.79
  Q 739.78 560.48 723.30 539.89
  C 721.50 537.63 718.99 533.78 718.22 531.52
  Q 712.49 514.66 712.28 498.50
  Q 711.86 465.10 712.01 397.17
  C 712.02 394.70 711.62 391.75 711.69 389.50
  Q 712.42 364.57 711.22 340.28
  Q 711.17 339.31 710.20 339.31
  L 675.28 339.24
  A 0.52 0.51 -89.4 0 0 674.77 339.75
  Q 674.55 406.48 674.90 473.25
  Q 675.04 499.16 676.53 515.50
  Z
  M 984.68 484.30
  Q 994.67 483.92 1004.76 484.83
  C 1014.69 485.72 1020.48 488.01 1028.27 494.22
  C 1052.80 513.78 1066.00 541.57 1083.53 568.05
  Q 1092.72 581.94 1101.97 595.53
  A 2.00 1.99 -17.3 0 0 1103.64 596.40
  Q 1123.00 596.37 1141.75 596.18
  Q 1143.53 596.16 1144.87 595.86
  Q 1145.49 595.71 1145.11 595.20
  Q 1127.33 571.04 1111.45 545.60
  Q 1100.40 527.89 1088.54 510.72
  C 1078.29 495.87 1068.79 485.29 1055.62 475.27
  A 1.10 1.10 0.0 0 1 1055.70 473.46
  Q 1055.93 473.31 1056.35 473.11
  C 1075.02 464.36 1089.83 450.20 1094.51 429.56
  C 1095.52 425.10 1096.61 420.51 1096.88 416.18
  C 1097.99 398.34 1093.23 378.02 1080.40 364.84
  C 1065.22 349.23 1046.16 341.50 1024.50 340.20
  C 999.31 338.70 973.84 339.16 948.64 339.25
  A 0.71 0.71 0.0 0 0 947.94 339.96
  L 947.89 595.69
  A 0.67 0.67 0.0 0 0 948.56 596.36
  L 983.69 596.25
  A 0.70 0.69 0.0 0 0 984.39 595.56
  L 984.36 484.64
  A 0.34 0.33 89.1 0 1 984.68 484.30
  Z
  M 2251.63 514.63
  C 2249.04 540.49 2228.74 557.40 2205.08 563.58
  Q 2196.19 565.90 2185.32 566.57
  C 2160.06 568.14 2135.48 560.91 2118.80 540.95
  C 2110.32 530.80 2107.80 516.61 2107.23 503.75
  Q 2106.54 488.07 2106.46 464.50
  Q 2106.25 402.16 2106.13 339.91
  A 0.64 0.63 -90.0 0 0 2105.50 339.27
  L 2070.24 339.25
  A 0.46 0.45 90.0 0 0 2069.79 339.71
  C 2069.78 394.68 2069.60 449.73 2070.46 504.75
  C 2070.69 519.39 2073.47 534.37 2080.11 547.31
  C 2103.26 592.43 2154.65 602.69 2200.49 597.70
  C 2229.57 594.54 2261.08 579.14 2276.31 553.06
  Q 2284.49 539.05 2287.60 522.65
  Q 2288.93 515.67 2289.50 502.78
  Q 2290.16 487.62 2290.18 474.75
  Q 2290.27 407.40 2290.23 340.23
  A 0.97 0.97 0.0 0 0 2289.26 339.26
  L 2254.50 339.26
  A 0.62 0.61 0.0 0 0 2253.88 339.87
  Q 2253.74 395.12 2253.76 450.25
  C 2253.77 472.45 2253.44 496.66 2251.63 514.63
  Z
  M 2378.72 340.14
  A 0.89 0.89 0.0 0 0 2377.83 339.25
  L 2342.15 339.25
  A 0.89 0.89 0.0 0 0 2341.26 340.14
  L 2341.26 595.40
  A 0.89 0.89 0.0 0 0 2342.15 596.29
  L 2377.83 596.29
  A 0.89 0.89 0.0 0 0 2378.72 595.40
  L 2378.72 340.14
  Z"
/>
<path fill="#012f6b" d="
  M 1635.26 0.00
  L 1656.76 0.00
  C 1694.06 1.94 1728.00 17.96 1752.64 45.88
  Q 1778.58 75.26 1783.00 112.76
  C 1784.95 129.31 1784.20 149.91 1779.86 166.51
  C 1767.19 214.97 1726.34 249.12 1678.01 259.58
  Q 1669.11 261.51 1660.00 261.88
  C 1645.45 262.46 1629.60 263.31 1615.25 260.57
  C 1588.39 255.45 1563.71 242.70 1544.53 223.35
  Q 1510.81 189.35 1508.57 139.75
  C 1506.96 104.21 1516.33 71.61 1540.19 44.68
  C 1564.65 17.06 1598.45 1.54 1635.26 0.00
  Z
  M 1660.76 227.97
  C 1692.86 225.37 1721.26 203.50 1736.34 175.79
  Q 1740.46 168.22 1743.86 155.60
  Q 1745.33 150.16 1745.55 144.23
  C 1746.11 129.04 1746.54 112.98 1741.21 98.78
  C 1729.19 66.78 1700.83 41.75 1666.69 36.10
  C 1640.77 31.82 1611.01 35.82 1588.61 50.86
  C 1567.17 65.26 1552.68 86.67 1548.08 111.98
  C 1543.39 137.81 1547.25 166.17 1562.93 187.83
  C 1580.53 212.14 1609.87 228.90 1640.50 228.65
  Q 1653.65 228.55 1660.76 227.97
  Z"
/>
<path fill="#012f6b" d="
  M 0.00 139.68
  L 0.00 125.50
  Q 0.56 115.69 1.01 112.75
  C 10.05 53.12 59.04 8.00 118.24 1.27
  Q 133.10 -0.42 150.79 0.68
  C 177.25 2.33 202.51 11.09 227.08 20.40
  A 1.44 1.43 10.4 0 1 228.01 21.74
  L 228.04 59.47
  A 0.55 0.55 0.0 0 1 227.23 59.96
  Q 222.07 57.18 216.79 54.47
  C 181.38 36.27 137.07 27.62 98.99 42.35
  C 63.35 56.13 39.11 89.23 37.83 127.65
  C 37.53 136.77 37.82 146.53 40.26 155.39
  Q 41.33 159.29 42.51 163.14
  C 51.79 193.40 74.18 213.16 103.15 223.88
  Q 107.41 225.46 111.66 226.24
  C 141.90 231.82 172.12 228.54 200.34 216.52
  C 210.29 212.28 220.37 207.44 229.40 201.53
  A 0.51 0.51 0.0 0 1 230.19 201.95
  Q 230.52 217.00 230.65 231.75
  C 230.71 238.43 230.26 242.17 223.47 244.95
  Q 215.52 248.21 207.46 251.17
  C 181.53 260.68 155.35 263.48 126.74 262.34
  Q 115.16 261.88 106.85 260.44
  C 51.32 250.82 10.84 208.26 1.30 153.08
  C 0.56 148.80 0.34 144.17 0.00 139.68
  Z"
/>
<path fill="#012f6b" d="
  M 664.05 259.27
  L 773.25 3.44
  A 1.46 1.46 0.0 0 1 774.56 2.56
  L 798.70 2.14
  A 1.85 1.84 77.3 0 1 800.41 3.23
  L 914.71 259.57
  A 0.32 0.32 0.0 0 1 914.42 260.02
  L 878.23 260.04
  A 1.35 1.35 0.0 0 1 877.00 259.25
  L 843.35 184.39
  A 2.23 2.23 0.0 0 0 841.38 183.07
  C 835.69 182.93 829.27 183.49 824.54 183.53
  Q 792.59 183.79 760.63 183.76
  C 754.73 183.76 743.29 183.04 734.74 183.83
  Q 733.38 183.95 732.85 185.26
  Q 728.04 197.08 722.98 208.79
  C 715.73 225.53 709.01 242.41 701.68 259.03
  A 1.57 1.57 0.0 0 1 700.24 259.97
  L 664.54 260.02
  A 0.54 0.53 -78.4 0 1 664.05 259.27
  Z
  M 786.14 60.54
  C 773.30 89.84 760.56 119.50 748.99 149.42
  A 1.18 1.18 0.0 0 0 750.03 151.03
  Q 754.99 151.32 760.25 151.39
  Q 792.25 151.85 824.25 151.23
  Q 825.76 151.20 827.03 150.96
  A 0.61 0.61 0.0 0 0 827.47 150.11
  L 787.55 60.54
  A 0.77 0.77 0.0 0 0 786.14 60.54
  Z"
/>
<path fill="#012f6b" d="
  M 384.32 137.54
  A 0.66 0.66 0.0 0 0 384.23 138.66
  C 412.56 159.78 429.78 192.60 448.43 221.74
  C 456.77 234.77 465.14 246.46 474.13 258.44
  A 0.67 0.66 69.0 0 1 473.66 259.51
  C 460.31 260.66 446.31 260.04 432.97 260.02
  A 2.52 2.52 0.0 0 1 430.89 258.92
  Q 412.94 232.48 395.96 205.31
  C 385.38 188.37 373.47 170.35 357.84 157.90
  C 345.92 148.41 329.26 147.32 314.77 148.30
  A 0.71 0.71 0.0 0 0 314.11 149.01
  L 313.71 259.22
  Q 313.71 260.14 312.78 260.14
  L 278.27 260.03
  A 1.02 1.01 -0.0 0 1 277.25 259.02
  L 277.23 3.74
  A 0.95 0.95 0.0 0 1 278.28 2.79
  Q 279.52 2.93 281.00 2.93
  Q 331.16 3.18 351.39 3.80
  Q 368.11 4.31 383.80 10.87
  C 404.96 19.72 418.96 34.74 424.28 57.75
  C 430.85 86.16 421.39 115.34 396.42 131.17
  C 393.00 133.33 388.35 135.48 384.32 137.54
  Z
  M 362.82 112.08
  Q 383.41 104.24 387.54 82.76
  Q 391.26 63.46 378.90 48.81
  C 364.63 31.90 334.50 35.25 314.52 34.47
  A 0.39 0.38 1.4 0 0 314.11 34.85
  L 313.68 114.47
  A 0.73 0.73 0.0 0 0 314.41 115.21
  Q 335.38 115.29 356.49 113.65
  Q 359.25 113.44 362.82 112.08
  Z"
/>
<path fill="#012f6b" d="
  M 1401.06 246.08
  Q 1384.65 253.48 1369.00 256.83
  Q 1359.09 258.95 1346.89 259.11
  Q 1292.67 259.81 1238.60 260.24
  A 0.75 0.75 0.0 0 1 1237.84 259.49
  L 1237.84 3.50
  Q 1237.84 2.98 1238.36 2.98
  Q 1293.51 3.02 1349.00 4.22
  Q 1357.04 4.39 1367.12 6.44
  C 1382.04 9.48 1397.70 13.52 1410.51 20.74
  C 1458.79 47.96 1482.75 106.83 1470.03 160.49
  Q 1461.24 197.56 1433.50 223.49
  C 1423.89 232.48 1413.11 240.65 1401.06 246.08
  Z
  M 1366.05 222.44
  C 1403.63 214.02 1430.34 181.65 1434.56 143.76
  C 1436.18 129.20 1435.52 114.03 1431.09 100.12
  C 1419.90 64.97 1388.92 40.76 1351.75 37.34
  Q 1342.17 36.45 1337.50 36.31
  Q 1305.98 35.35 1274.54 35.98
  A 0.32 0.32 0.0 0 0 1274.22 36.30
  L 1274.19 226.45
  Q 1274.19 226.96 1274.70 226.97
  Q 1299.84 227.19 1325.00 227.07
  Q 1345.79 226.97 1366.05 222.44
  Z"
/>
<path fill="#012f6b" d="
  M 541.36 114.22
  L 644.64 114.33
  A 0.81 0.81 0.0 0 1 645.45 115.14
  L 645.40 145.55
  A 1.46 1.46 0.0 0 1 643.94 147.01
  L 541.59 147.05
  Q 540.60 147.05 540.60 148.04
  L 540.60 226.45
  Q 540.60 227.17 541.32 227.17
  L 652.01 227.25
  A 0.75 0.75 0.0 0 1 652.76 228.01
  L 652.26 258.80
  A 0.81 0.81 0.0 0 1 651.45 259.60
  L 504.95 259.65
  A 1.14 1.14 0.0 0 1 503.81 258.52
  C 503.20 174.31 503.13 89.55 503.22 4.03
  Q 503.22 3.03 504.23 3.03
  L 648.26 3.02
  A 0.74 0.74 0.0 0 1 649.00 3.76
  L 649.01 35.42
  A 0.43 0.43 0.0 0 1 648.58 35.85
  L 541.27 35.78
  A 0.70 0.70 0.0 0 0 540.57 36.48
  L 540.62 113.49
  A 0.74 0.74 0.0 0 0 541.36 114.22
  Z"
/>
<path fill="#012f6b" d="
  M 979.48 64.11
  Q 979.44 64.26 979.44 64.50
  Q 979.02 162.05 978.92 259.42
  A 0.69 0.69 0.0 0 1 978.23 260.11
  L 946.06 259.98
  Q 944.82 259.97 944.77 258.74
  Q 944.09 242.91 944.11 226.25
  Q 944.25 125.68 944.29 25.10
  C 944.30 18.04 945.52 11.16 945.01 4.06
  A 0.84 0.84 0.0 0 1 945.84 3.16
  Q 958.00 2.91 970.26 3.07
  C 974.20 3.12 975.09 4.48 977.80 7.60
  C 1032.02 70.00 1086.10 132.51 1140.59 194.66
  Q 1143.15 197.58 1145.80 200.40
  C 1146.02 200.64 1146.40 200.76 1146.72 200.72
  A 0.49 0.49 0.0 0 0 1147.13 200.24
  L 1147.48 3.78
  A 0.74 0.74 0.0 0 1 1148.22 3.04
  L 1181.28 3.03
  Q 1181.70 3.03 1181.71 3.45
  Q 1182.24 21.65 1182.25 39.75
  Q 1182.30 149.64 1182.13 259.40
  A 0.64 0.64 0.0 0 1 1181.49 260.04
  L 1151.45 260.04
  A 2.11 2.09 69.2 0 1 1149.87 259.32
  L 980.27 63.93
  A 0.46 0.46 0.0 0 0 979.48 64.11
  Z"
/>
<path fill="#012f6b" d="
  M 1971.13 62.24
  A 0.61 0.60 72.9 0 0 1970.87 62.74
  L 1970.37 259.48
  A 0.60 0.60 0.0 0 1 1969.77 260.07
  L 1934.06 260.02
  A 0.97 0.96 -0.0 0 1 1933.09 259.06
  L 1933.10 3.71
  A 0.70 0.69 -90.0 0 1 1933.79 3.01
  L 1965.94 3.07
  A 4.46 4.43 -19.3 0 1 1969.40 4.72
  L 2051.94 106.43
  Q 2053.11 107.86 2054.37 106.51
  Q 2057.38 103.27 2060.71 99.21
  Q 2106.29 43.73 2136.61 5.35
  C 2137.92 3.69 2138.59 3.05 2140.88 3.05
  Q 2156.54 3.02 2172.02 3.03
  A 0.70 0.70 0.0 0 1 2172.72 3.73
  L 2172.72 259.53
  A 0.50 0.50 0.0 0 1 2172.22 260.03
  L 2137.51 260.01
  A 1.13 1.12 89.7 0 1 2136.39 258.89
  L 2135.75 61.23
  A 0.37 0.36 81.3 0 0 2135.28 60.88
  Q 2134.91 60.99 2134.61 61.38
  Q 2097.33 108.57 2060.01 155.74
  Q 2057.83 158.50 2056.52 159.25
  C 2051.20 162.31 2041.79 148.95 2039.00 145.51
  Q 2005.36 104.00 1971.82 62.42
  Q 1971.48 61.99 1971.13 62.24
  Z"
/>
<rect fill="#012f6b" x="2228.37" y="3.05" width="37.30" height="257.02" rx="0.68"/>
<path fill="#000000" d="
  M 362.82 112.08
  Q 359.25 113.44 356.49 113.65
  Q 335.38 115.29 314.41 115.21
  A 0.73 0.73 0.0 0 1 313.68 114.47
  L 314.11 34.85
  A 0.39 0.38 1.4 0 1 314.52 34.47
  C 334.50 35.25 364.63 31.90 378.90 48.81
  Q 391.26 63.46 387.54 82.76
  Q 383.41 104.24 362.82 112.08
  Z"
/>
<path fill="#000000" d="
  M 1736.34 175.79
  C 1721.26 203.50 1692.86 225.37 1660.76 227.97
  Q 1653.65 228.55 1640.50 228.65
  C 1609.87 228.90 1580.53 212.14 1562.93 187.83
  C 1547.25 166.17 1543.39 137.81 1548.08 111.98
  C 1552.68 86.67 1567.17 65.26 1588.61 50.86
  C 1611.01 35.82 1640.77 31.82 1666.69 36.10
  C 1700.83 41.75 1729.19 66.78 1741.21 98.78
  C 1746.54 112.98 1746.11 129.04 1745.55 144.23
  Q 1745.33 150.16 1743.86 155.60
  Q 1740.46 168.22 1736.34 175.79
  Z"
/>
<path fill="#000000" d="
  M 1434.56 143.76
  C 1430.34 181.65 1403.63 214.02 1366.05 222.44
  Q 1345.79 226.97 1325.00 227.07
  Q 1299.84 227.19 1274.70 226.97
  Q 1274.19 226.96 1274.19 226.45
  L 1274.22 36.30
  A 0.32 0.32 0.0 0 1 1274.54 35.98
  Q 1305.98 35.35 1337.50 36.31
  Q 1342.17 36.45 1351.75 37.34
  C 1388.92 40.76 1419.90 64.97 1431.09 100.12
  C 1435.52 114.03 1436.18 129.20 1434.56 143.76
  Z"
/>
<path fill="#000000" d="
  M 748.99 149.42
  C 760.56 119.50 773.30 89.84 786.14 60.54
  A 0.77 0.77 0.0 0 1 787.55 60.54
  L 827.47 150.11
  A 0.61 0.61 0.0 0 1 827.03 150.96
  Q 825.76 151.20 824.25 151.23
  Q 792.25 151.85 760.25 151.39
  Q 754.99 151.32 750.03 151.03
  A 1.18 1.18 0.0 0 1 748.99 149.42
  Z"
/>
<path fill="#012f6b" d="
  M 2409.56 267.52
  L 2370.30 319.73
  A 1.30 1.30 0.0 0 1 2369.24 320.25
  L 2351.43 319.93
  A 1.30 1.30 0.0 0 1 2350.27 318.11
  L 2373.21 266.56
  A 1.30 1.30 0.0 0 1 2374.38 265.79
  L 2408.51 265.44
  A 1.30 1.30 0.0 0 1 2409.56 267.52
  Z"
/>
<path fill="#012f6b" d="
  M 1159.13 398.75
  C 1187.44 353.18 1237.45 331.71 1290.24 336.57
  C 1296.49 337.15 1303.01 337.41 1308.87 338.56
  C 1361.14 348.87 1403.39 387.82 1413.99 440.75
  Q 1414.91 445.34 1416.01 460.50
  C 1416.65 469.36 1415.67 480.26 1414.57 489.13
  Q 1410.42 522.46 1389.30 548.03
  Q 1355.98 588.37 1303.26 596.98
  Q 1294.08 598.48 1276.00 598.86
  C 1230.44 599.80 1189.26 579.88 1163.01 542.55
  Q 1144.40 516.08 1141.26 483.75
  C 1138.40 454.38 1143.42 424.05 1159.13 398.75
  Z
  M 1186.17 428.43
  C 1179.20 444.41 1178.53 457.91 1179.09 476.71
  C 1180.39 520.83 1216.50 556.65 1258.64 563.77
  C 1267.96 565.34 1279.91 565.66 1289.26 564.71
  Q 1334.78 560.10 1361.32 523.36
  C 1370.76 510.28 1377.02 493.95 1378.25 477.60
  C 1380.58 446.44 1371.58 419.45 1349.03 397.97
  Q 1323.17 373.32 1287.26 370.83
  C 1244.15 367.84 1203.93 387.72 1186.17 428.43
  Z"
/>
<path fill="#012f6b" d="
  M 1983.63 648.00
  L 1980.75 648.00
  Q 1964.70 645.95 1949.24 641.37
  Q 1922.17 633.37 1902.59 622.41
  Q 1889.09 614.86 1868.68 601.55
  C 1860.27 596.06 1851.19 594.34 1842.01 591.26
  C 1788.04 573.14 1752.51 523.66 1753.26 466.25
  C 1753.48 449.61 1756.04 434.41 1761.83 419.17
  C 1779.26 373.33 1824.25 339.92 1873.33 337.06
  C 1877.88 336.80 1882.80 335.98 1886.90 335.85
  C 1927.09 334.59 1964.64 347.65 1993.01 376.01
  C 2024.17 407.17 2035.52 452.76 2026.37 495.81
  C 2018.08 534.73 1991.01 568.76 1954.78 585.54
  Q 1940.49 592.15 1925.76 595.52
  Q 1923.05 596.13 1925.63 597.16
  Q 1943.28 604.21 1962.51 610.27
  Q 1978.32 615.26 1991.00 616.84
  C 2002.64 618.30 2010.21 616.11 2020.25 613.55
  Q 2021.22 613.30 2020.68 614.15
  Q 2020.07 615.11 2018.99 616.24
  Q 2003.13 632.87 1989.75 645.00
  Q 1987.34 647.19 1983.63 648.00
  Z
  M 1929.58 558.38
  C 1955.39 547.90 1976.37 527.46 1986.04 501.29
  C 1991.17 487.43 1991.83 471.84 1990.82 457.01
  C 1988.82 427.60 1972.27 402.09 1948.04 386.21
  C 1923.46 370.11 1890.03 367.10 1862.23 374.23
  C 1818.49 385.45 1789.77 426.35 1791.29 471.25
  Q 1792.80 516.02 1825.78 542.96
  C 1842.12 556.30 1862.41 563.69 1883.50 564.98
  C 1898.88 565.93 1915.21 564.21 1929.58 558.38
  Z"
/>
<path fill="#012f6b" d="
  M 1569.79 521.01
  L 1538.54 595.07
  A 2.01 2.01 0.0 0 1 1536.69 596.30
  L 1501.19 596.40
  A 0.57 0.57 0.0 0 1 1500.67 595.61
  L 1610.33 338.85
  A 1.58 1.57 9.0 0 1 1611.65 337.90
  Q 1622.97 337.04 1634.43 338.07
  C 1636.49 338.26 1636.78 339.05 1637.56 340.69
  Q 1641.82 349.65 1645.85 358.71
  Q 1698.41 476.79 1751.18 595.16
  A 0.54 0.54 0.0 0 1 1750.69 595.92
  L 1716.38 596.03
  Q 1714.81 596.03 1714.00 594.69
  Q 1712.58 592.33 1711.21 589.33
  Q 1695.36 554.61 1679.87 519.94
  Q 1679.65 519.46 1679.12 519.46
  L 1570.99 520.21
  A 1.32 1.32 0.0 0 0 1569.79 521.01
  Z
  M 1622.62 396.62
  C 1609.97 425.88 1598.08 455.37 1585.69 484.69
  Q 1585.23 485.77 1585.79 486.53
  A 0.35 0.33 -16.8 0 0 1586.07 486.67
  L 1662.74 487.13
  A 0.71 0.70 -11.2 0 0 1663.40 486.15
  C 1650.69 455.97 1637.71 426.13 1623.82 396.60
  A 0.66 0.66 0.0 0 0 1622.62 396.62
  Z"
/>
<path fill="#012f6b" d="
  M 47.55 444.01
  L 146.21 444.12
  A 0.76 0.76 0.0 0 1 146.97 444.88
  L 146.97 476.19
  A 0.76 0.76 0.0 0 1 146.21 476.95
  L 47.45 476.97
  A 0.76 0.76 0.0 0 0 46.69 477.73
  L 46.68 595.50
  A 0.76 0.76 0.0 0 1 45.92 596.26
  L 11.00 596.36
  A 0.76 0.76 0.0 0 1 10.24 595.60
  L 10.24 339.98
  A 0.76 0.76 0.0 0 1 11.00 339.22
  L 146.22 339.33
  A 0.76 0.76 0.0 0 1 146.98 340.09
  L 146.93 371.37
  A 0.76 0.76 0.0 0 1 146.17 372.13
  L 47.24 372.15
  A 0.76 0.76 0.0 0 0 46.48 372.91
  L 46.79 443.25
  A 0.76 0.76 0.0 0 0 47.55 444.01
  Z"
/>
<path fill="#012f6b" d="
  M 401.71 477.37
  C 401.53 499.30 401.60 510.65 397.44 528.72
  C 389.63 562.70 362.30 585.89 329.26 594.54
  Q 321.03 596.69 309.56 597.74
  C 285.27 599.97 263.03 599.18 240.42 590.22
  C 206.48 576.76 185.83 550.28 182.37 513.06
  Q 180.72 495.36 180.68 460.75
  Q 180.62 400.36 180.75 340.01
  A 0.77 0.77 0.0 0 1 181.52 339.24
  L 217.25 339.28
  A 0.76 0.76 0.0 0 1 218.01 340.04
  Q 218.08 406.38 218.11 472.75
  Q 218.12 495.48 219.47 511.50
  C 220.72 526.35 226.62 539.14 237.72 548.80
  C 248.67 558.32 262.52 564.44 277.76 565.83
  C 290.13 566.96 303.63 566.87 315.25 564.08
  C 336.29 559.02 354.96 544.93 361.98 523.74
  Q 363.12 520.31 363.43 509.75
  C 365.06 453.46 364.64 396.94 364.84 340.44
  Q 364.84 339.24 366.04 339.24
  L 401.01 339.28
  Q 401.97 339.28 401.97 340.25
  Q 402.25 409.08 401.71 477.37
  Z"
/>
<path fill="#012f6b" d="
  M 518.19 372.14
  L 431.94 372.13
  A 0.67 0.67 0.0 0 1 431.27 371.46
  L 431.14 339.91
  A 0.67 0.67 0.0 0 1 431.81 339.24
  L 644.73 339.26
  A 0.67 0.67 0.0 0 1 645.40 339.93
  L 645.42 371.48
  A 0.67 0.67 0.0 0 1 644.75 372.15
  L 556.71 372.16
  A 0.67 0.67 0.0 0 0 556.04 372.83
  L 556.04 595.59
  A 0.67 0.67 0.0 0 1 555.37 596.26
  L 519.57 596.40
  A 0.67 0.67 0.0 0 1 518.90 595.73
  L 518.86 372.81
  A 0.67 0.67 0.0 0 0 518.19 372.14
  Z"
/>
<path fill="#012f6b" d="
  M 722.98 584.73
  C 696.27 570.91 679.25 545.39 676.53 515.50
  Q 675.04 499.16 674.90 473.25
  Q 674.55 406.48 674.77 339.75
  A 0.52 0.51 -89.4 0 1 675.28 339.24
  L 710.20 339.31
  Q 711.17 339.31 711.22 340.28
  Q 712.42 364.57 711.69 389.50
  C 711.62 391.75 712.02 394.70 712.01 397.17
  Q 711.86 465.10 712.28 498.50
  Q 712.49 514.66 718.22 531.52
  C 718.99 533.78 721.50 537.63 723.30 539.89
  Q 739.78 560.48 765.01 564.79
  C 789.18 568.93 815.05 566.71 835.19 552.15
  C 848.90 542.23 857.81 526.47 857.96 509.25
  Q 858.69 425.11 858.78 339.95
  A 0.76 0.76 0.0 0 1 859.55 339.19
  L 895.25 339.41
  Q 895.83 339.41 895.81 340.00
  Q 895.72 342.67 895.74 345.50
  Q 896.18 412.88 895.55 480.25
  C 895.37 499.82 895.62 511.62 891.74 528.24
  C 885.17 556.41 866.21 577.56 839.66 588.58
  C 829.00 593.01 817.81 596.62 806.26 597.73
  C 777.30 600.51 749.96 598.69 722.98 584.73
  Z"
/>
<path fill="#012f6b" d="
  M 984.68 484.30
  A 0.34 0.33 89.1 0 0 984.36 484.64
  L 984.39 595.56
  A 0.70 0.69 0.0 0 1 983.69 596.25
  L 948.56 596.36
  A 0.67 0.67 0.0 0 1 947.89 595.69
  L 947.94 339.96
  A 0.71 0.71 0.0 0 1 948.64 339.25
  C 973.84 339.16 999.31 338.70 1024.50 340.20
  C 1046.16 341.50 1065.22 349.23 1080.40 364.84
  C 1093.23 378.02 1097.99 398.34 1096.88 416.18
  C 1096.61 420.51 1095.52 425.10 1094.51 429.56
  C 1089.83 450.20 1075.02 464.36 1056.35 473.11
  Q 1055.93 473.31 1055.70 473.46
  A 1.10 1.10 0.0 0 0 1055.62 475.27
  C 1068.79 485.29 1078.29 495.87 1088.54 510.72
  Q 1100.40 527.89 1111.45 545.60
  Q 1127.33 571.04 1145.11 595.20
  Q 1145.49 595.71 1144.87 595.86
  Q 1143.53 596.16 1141.75 596.18
  Q 1123.00 596.37 1103.64 596.40
  A 2.00 1.99 -17.3 0 1 1101.97 595.53
  Q 1092.72 581.94 1083.53 568.05
  C 1066.00 541.57 1052.80 513.78 1028.27 494.22
  C 1020.48 488.01 1014.69 485.72 1004.76 484.83
  Q 994.67 483.92 984.68 484.30
  Z
  M 1035.56 447.33
  C 1047.94 442.12 1056.77 431.03 1058.55 418.00
  C 1061.70 395.07 1049.19 376.50 1026.26 372.74
  C 1012.95 370.55 998.95 370.79 985.53 370.81
  A 0.66 0.66 0.0 0 0 984.87 371.47
  L 984.39 450.76
  A 0.80 0.80 0.0 0 0 985.21 451.57
  C 999.49 451.30 1014.06 451.42 1028.23 449.56
  Q 1031.17 449.18 1035.56 447.33
  Z"
/>
<path fill="#012f6b" d="
  M 2205.08 563.58
  C 2228.74 557.40 2249.04 540.49 2251.63 514.63
  C 2253.44 496.66 2253.77 472.45 2253.76 450.25
  Q 2253.74 395.12 2253.88 339.87
  A 0.62 0.61 -0.0 0 1 2254.50 339.26
  L 2289.26 339.26
  A 0.97 0.97 0.0 0 1 2290.23 340.23
  Q 2290.27 407.40 2290.18 474.75
  Q 2290.16 487.62 2289.50 502.78
  Q 2288.93 515.67 2287.60 522.65
  Q 2284.49 539.05 2276.31 553.06
  C 2261.08 579.14 2229.57 594.54 2200.49 597.70
  C 2154.65 602.69 2103.26 592.43 2080.11 547.31
  C 2073.47 534.37 2070.69 519.39 2070.46 504.75
  C 2069.60 449.73 2069.78 394.68 2069.79 339.71
  A 0.46 0.45 -90.0 0 1 2070.24 339.25
  L 2105.50 339.27
  A 0.64 0.63 -90.0 0 1 2106.13 339.91
  Q 2106.25 402.16 2106.46 464.50
  Q 2106.54 488.07 2107.23 503.75
  C 2107.80 516.61 2110.32 530.80 2118.80 540.95
  C 2135.48 560.91 2160.06 568.14 2185.32 566.57
  Q 2196.19 565.90 2205.08 563.58
  Z"
/>
<rect fill="#012f6b" x="2341.26" y="339.25" width="37.46" height="257.04" rx="0.89"/>
<path fill="#000000" d="
  M 1929.58 558.38
  C 1915.21 564.21 1898.88 565.93 1883.50 564.98
  C 1862.41 563.69 1842.12 556.30 1825.78 542.96
  Q 1792.80 516.02 1791.29 471.25
  C 1789.77 426.35 1818.49 385.45 1862.23 374.23
  C 1890.03 367.10 1923.46 370.11 1948.04 386.21
  C 1972.27 402.09 1988.82 427.60 1990.82 457.01
  C 1991.83 471.84 1991.17 487.43 1986.04 501.29
  C 1976.37 527.46 1955.39 547.90 1929.58 558.38
  Z"
/>
<path fill="#000000" d="
  M 1035.56 447.33
  Q 1031.17 449.18 1028.23 449.56
  C 1014.06 451.42 999.49 451.30 985.21 451.57
  A 0.80 0.80 0.0 0 1 984.39 450.76
  L 984.87 371.47
  A 0.66 0.66 0.0 0 1 985.53 370.81
  C 998.95 370.79 1012.95 370.55 1026.26 372.74
  C 1049.19 376.50 1061.70 395.07 1058.55 418.00
  C 1056.77 431.03 1047.94 442.12 1035.56 447.33
  Z"
/>
<path fill="#000000" d="
  M 1186.17 428.43
  C 1203.93 387.72 1244.15 367.84 1287.26 370.83
  Q 1323.17 373.32 1349.03 397.97
  C 1371.58 419.45 1380.58 446.44 1378.25 477.60
  C 1377.02 493.95 1370.76 510.28 1361.32 523.36
  Q 1334.78 560.10 1289.26 564.71
  C 1279.91 565.66 1267.96 565.34 1258.64 563.77
  C 1216.50 556.65 1180.39 520.83 1179.09 476.71
  C 1178.53 457.91 1179.20 444.41 1186.17 428.43
  Z"
/>
<path fill="#000000" d="
  M 1585.69 484.69
  C 1598.08 455.37 1609.97 425.88 1622.62 396.62
  A 0.66 0.66 0.0 0 1 1623.82 396.60
  C 1637.71 426.13 1650.69 455.97 1663.40 486.15
  A 0.71 0.70 -11.2 0 1 1662.74 487.13
  L 1586.07 486.67
  A 0.35 0.33 -16.8 0 1 1585.79 486.53
  Q 1585.23 485.77 1585.69 484.69
  Z"
/>
</svg>
